<svg xmlns="http://www.w3.org/2000/svg" viewBox="0 0 100 100" fill="none" stroke="currentColor" stroke-width="0.5" stroke-dasharray="1 1.5">
  <path d="M30,35 C25,40 15,45 15,55 C15,65 25,75 35,85 C40,90 50,95 55,95 C65,95 70,85 70,75 C70,65 85,55 90,45 C95,35 85,25 75,25 C65,25 55,15 45,15 C35,15 35,25 30,35 Z" opacity="0.3"/>
  <path d="M35,40 C30,45 20,50 20,60 C20,70 30,80 40,90 C45,95 55,100 60,100 C70,100 75,90 75,80 C75,70 90,60 95,50 C100,40 90,30 80,30 C70,30 60,20 50,20 C40,20 40,30 35,40 Z" opacity="0.1"/>
</svg>